PathFileType	4	(X/Y/Z)	C:\Git\research_data\Projects\squatting_fais\c3dfiles\036\SJ_pre1\markers_experimental.trc
DataRate	CameraRate	NumFrames	NumMarkers	Units	OrigDataRate	OrigDataStartFrame	OrigNumFrames
200.000000	200.000000	4	62	mm	200.000000	1100	2200
Frame#	Time	FHD			LBHD			RBHD			C7			T10			CLAV			LSHO			LUUPA			LMUPA			LDUPA			LLEP			LMEP			LRAD			LUL			LRFIN			RSHO			RUPA1			RMUPA			RDUPA			RLEP			RMEP			RRAD			RUL			RUFIN			LASI			RASI			USACR			LSACR			RSACR			LTHI1			LTHI2			LTHI3			LTHI4			LLFC			LMFC			LTIB1			LTIB2			LTIB3			LTIB4			LLMAL			LMMAL			LHEE			LMT1			LMT2			LMT5			RTHI			RTHI2			RTHI3			RTHI4			RLFC			RMFC			RTIB1			RTIB2			RTIB3			RTIB4			RLMAL			RMMAL			RHEE			RMT1			RMT2			RMT5			*61			
		X1	Y1	Z1	X2	Y2	Z2	X3	Y3	Z3	X4	Y4	Z4	X5	Y5	Z5	X6	Y6	Z6	X7	Y7	Z7	X8	Y8	Z8	X9	Y9	Z9	X10	Y10	Z10	X11	Y11	Z11	X12	Y12	Z12	X13	Y13	Z13	X14	Y14	Z14	X15	Y15	Z15	X16	Y16	Z16	X17	Y17	Z17	X18	Y18	Z18	X19	Y19	Z19	X20	Y20	Z20	X21	Y21	Z21	X22	Y22	Z22	X23	Y23	Z23	X24	Y24	Z24	X25	Y25	Z25	X26	Y26	Z26	X27	Y27	Z27	X28	Y28	Z28	X29	Y29	Z29	X30	Y30	Z30	X31	Y31	Z31	X32	Y32	Z32	X33	Y33	Z33	X34	Y34	Z34	X35	Y35	Z35	X36	Y36	Z36	X37	Y37	Z37	X38	Y38	Z38	X39	Y39	Z39	X40	Y40	Z40	X41	Y41	Z41	X42	Y42	Z42	X43	Y43	Z43	X44	Y44	Z44	X45	Y45	Z45	X46	Y46	Z46	X47	Y47	Z47	X48	Y48	Z48	X49	Y49	Z49	X50	Y50	Z50	X51	Y51	Z51	X52	Y52	Z52	X53	Y53	Z53	X54	Y54	Z54	X55	Y55	Z55	X56	Y56	Z56	X57	Y57	Z57	X58	Y58	Z58	X59	Y59	Z59	X60	Y60	Z60	X61	Y61	Z61	X62	Y62	Z62	

1101	5.5	115.1638412475586	1045.7685546875	-814.1938476562502	31.69167518615723	1002.288269042969	-975.1722412109377	-25.69884300231934	1062.575805664063	-847.0764770507815	nan	nan	nan	-333.3973999023438	816.7261962890627	-912.2886352539065	-22.80484580993653	842.9119873046877	-881.138854980469	-1.054454207420349	893.9067993164065	-1024.8515625	-88.66780090332033	863.8236083984377	-1175.895385742188	-103.3941879272461	816.2426757812502	-1180.160888671875	-134.8711853027344	841.8852539062502	-1224.943237304688	-182.1181030273438	815.3106689453127	-1251.790649414063	-220.7207794189454	870.808044433594	-1238.206909179688	-339.1904296875001	653.1817016601564	-1180.11328125	-354.0375366210938	706.5681762695314	-1136.300415039063	-335.2253112792969	668.1194458007814	-1091.489501953125	-36.98365783691407	920.4812011718752	-752.4644775390626	-143.0723419189453	911.894226074219	-629.4637451171876	-146.0370178222657	863.6087646484377	-618.2195434570314	-186.8866424560547	885.622741699219	-580.6238403320314	-244.2072448730469	845.5391845703127	-548.8234252929689	-300.4963684082032	880.4034423828127	-587.7305908203126	-365.9915771484376	696.6481323242189	-676.2407836914064	-348.2924194335938	648.4330444335939	-634.1822509765626	-350.4870910644532	661.8429565429689	-721.6295166015626	nan	nan	nan	nan	nan	nan	-424.099090576172	766.8499145507814	-916.3623657226565	-455.3542785644532	757.6857910156251	-943.1103515625002	-450.692352294922	759.4370117187501	-887.3048095703127	-395.1755981445314	583.8313598632814	-1140.073120117188	-318.2835998535157	554.5845336914064	-1141.574096679688	-292.3982543945313	586.1492919921876	-1116.73388671875	-297.4890441894532	502.7764282226564	-1149.7373046875	-197.3744506835938	401.9905395507814	-1158.48779296875	-162.4031524658203	367.4943542480469	-1007.080383300781	-175.115966796875	236.7079162597657	-1078.702270507813	-220.6177368164063	212.4135894775391	-1149.240234375	-200.6452941894532	197.9230499267579	-1111.56494140625	-243.2738037109376	131.3782806396485	-1079.251342773438	-332.9908752441407	85.0011444091797	-1133.532592773438	-309.5195312500001	84.31105041503908	-1050.204345703125	-390.2940368652345	61.69154739379884	-1094.379638671875	-200.2493438720704	50.72024536132814	-1075.4755859375	-189.9312896728516	53.22885513305665	-1123.03173828125	-232.8706665039063	35.91178894042969	-1171.854125976563	-424.7462768554689	500.6258239746095	-678.7868041992189	-359.9484252929688	500.2217407226564	-660.3052978515626	-342.3852233886719	527.7106323242189	-659.2860107421876	-307.9516906738282	436.9620056152345	-655.8260498046876	-205.5005645751954	392.0702209472657	-638.5671997070314	-153.9877166748047	404.0144653320314	-779.4322509765627	-183.1239471435547	247.3704681396485	-690.3337402343751	-281.6966857910157	202.4984893798829	-654.9861450195314	-243.4750366210938	186.3162689208985	-676.1948852539064	-251.6869659423829	141.3522186279297	-713.6381225585939	-365.7698974609376	85.28520965576173	-707.4629516601564	-319.5006103515626	82.27005767822267	-778.8558349609377	-408.0057678222657	59.24288940429689	-752.5381469726564	-211.3747558593751	47.8119010925293	-727.2680053710939	-221.4304351806641	56.45036697387697	-678.4950561523439	-268.5786743164063	36.55955886840821	-639.8361206054689	nan	nan	nan	
1102	5.505	115.0918884277344	1045.480346679688	-814.2525634765627	31.56101989746094	1002.019775390625	-975.1926879882815	-25.66484451293946	1062.369384765625	-847.1424560546877	nan	nan	nan	-333.4740295410157	816.6130371093752	-912.326110839844	-22.82737922668457	842.8355102539065	-881.1528320312502	-1.117486715316773	893.6307373046877	-1024.859130859375	-88.68855285644533	863.582214355469	-1175.916015625	-103.2738952636719	816.005554199219	-1180.142822265625	-134.8401031494141	841.630554199219	-1225.031860351563	-182.377426147461	814.971374511719	-1250.983520507813	-220.6497039794922	870.5515136718752	-1238.201782226563	-339.3084716796876	653.1058959960939	-1180.153686523438	-354.2655029296876	706.4561157226564	-1136.39697265625	-334.7799682617188	667.8607177734376	-1091.594482421875	-37.19025421142579	920.3939208984377	-752.4602661132814	-143.2591552734375	911.8437500000002	-629.5020751953126	-146.3495483398438	863.4464111328127	-618.1661987304689	-187.1327056884766	885.5738525390627	-580.7084350585939	-244.3935699462891	845.491638183594	-548.8778076171876	-300.6724853515626	880.414978027344	-587.8489379882814	-366.1389770507813	696.5691528320314	-676.3246459960939	-348.3696289062501	648.3547363281251	-634.3174438476564	-350.6321716308594	661.7662353515626	-721.6175537109376	nan	nan	nan	nan	nan	nan	-424.2389221191407	766.7199096679689	-916.475280761719	-455.6237182617189	757.5900268554689	-943.1648559570315	-450.8953247070314	759.2453613281251	-887.4561767578127	-395.4677124023439	583.6443481445314	-1139.993774414063	-318.4630737304688	554.4556884765626	-1141.6513671875	-292.5597534179688	586.0666503906251	-1116.818359375	-297.6136779785157	502.6915588378907	-1149.859497070313	-197.4691619873047	401.9367065429689	-1158.607543945313	-162.4705047607422	367.5108337402344	-1007.257995605469	-175.1520538330078	236.6834106445313	-1078.7705078125	-220.5849151611329	212.3800048828126	-1149.3486328125	-200.6154479980469	197.8073120117188	-1111.655151367188	-243.275375366211	131.3960266113282	-1079.252685546875	-332.9224243164063	84.95156860351564	-1133.514404296875	-309.5013122558594	84.33863067626955	-1050.26025390625	-390.2751770019532	61.72647857666017	-1094.35595703125	-200.2394714355469	50.69028854370119	-1075.521850585938	-189.9532012939453	53.28146743774415	-1123.00244140625	-233.3481140136719	36.05219268798829	-1171.869262695313	-424.8317871093751	500.5084228515626	-678.7861328125001	-360.1124267578126	500.1648254394532	-660.2641601562501	-342.4531250000001	527.6737060546876	-659.2981567382814	-307.9783325195313	436.8598632812501	-655.8420410156251	-205.5428161621094	392.0963745117189	-638.5695800781251	-153.5868225097657	404.4319763183595	-779.6422119140627	-183.1153717041016	247.3889160156251	-690.3378906250001	-281.6901245117188	202.481918334961	-655.0064086914064	-243.3061828613282	186.5393524169922	-675.7340698242189	-251.6882629394532	141.3567047119141	-713.6261596679689	-365.7566223144532	85.29602813720705	-707.4471435546876	-319.5525512695313	82.25767517089845	-778.845642089844	-407.9627075195314	59.22650146484376	-752.5758056640626	-211.3585968017579	47.76939010620118	-727.2655029296876	-221.4815673828126	56.45521926879884	-678.4975585937501	-268.5828857421876	36.53939819335938	-639.8768310546876	nan	nan	nan	
1103	5.51	115.0815963745117	1045.187622070313	-814.331237792969	31.45075225830079	1001.746154785156	-975.2263793945315	-25.66996955871583	1062.148803710938	-847.2772216796877	nan	nan	nan	-333.5784606933594	816.4399414062502	-912.3181762695315	-22.99265670776368	842.5557861328127	-881.1387329101565	-1.034489512443543	893.3148193359377	-1024.86865234375	-88.58602142333986	863.2481689453127	-1175.98388671875	-103.3108596801758	815.7178344726565	-1180.181518554688	-134.7941284179688	841.3276977539065	-1225.031005859375	-182.3317108154297	814.7094726562502	-1251.004760742188	-220.6860809326172	870.3508300781252	-1238.205810546875	-339.4382934570313	652.9147338867189	-1180.234130859375	-354.4347839355469	706.3708496093751	-1136.3857421875	-334.9347839355469	667.7520751953126	-1091.603515625	-37.36122131347657	920.2158813476565	-752.4247436523439	-143.4442596435547	911.731872558594	-629.4785156250001	-146.4892272949219	863.3474121093752	-618.1603393554689	-187.2555389404297	885.4938964843752	-580.7777099609376	-244.4932708740235	845.4322509765627	-548.9645996093751	-300.7413940429688	880.2393798828127	-587.9855957031251	-367.3369140625001	697.0687866210939	-676.6399536132814	-348.5031738281251	648.2804565429689	-634.3887329101564	-350.6958618164063	661.8102416992189	-721.6550903320314	nan	nan	nan	nan	nan	nan	-424.4925537109376	766.2796630859376	-916.4774169921877	-456.0418090820314	757.4429321289064	-943.2327270507815	-451.1430969238282	759.0700073242189	-887.5067138671877	-395.6946105957032	583.4954833984376	-1140.11669921875	-318.6402282714844	554.3842163085939	-1141.724975585938	-292.7810974121094	585.9660034179689	-1116.89990234375	-297.7746582031251	502.5637207031251	-1149.989379882813	-197.5309753417969	401.9353332519532	-1158.75830078125	-162.4756469726563	367.4484863281251	-1007.462646484375	-175.1587829589844	236.6227416992188	-1078.918090820313	-220.6675262451172	212.3414306640626	-1149.423583984375	-200.611557006836	197.8992919921876	-1111.760131835938	-243.2719116210938	131.4309539794922	-1079.257568359375	-333.2421875000001	84.95516967773439	-1133.734619140625	-309.4909362792969	84.35656738281251	-1050.245727539063	-390.3598937988282	61.67448806762697	-1094.416015625	-200.2364959716797	50.77145385742189	-1075.468017578125	-189.8736419677735	53.24009704589845	-1123.036499023438	-233.2055358886719	35.97760009765626	-1171.861328125	-424.8309020996095	500.4012756347657	-678.7539062500001	-360.1771545410157	500.1018066406251	-660.3208007812501	-342.5266723632813	527.5621948242189	-659.3112182617189	-308.0038452148438	436.7916564941407	-655.8225708007814	-205.5404357910157	392.1101379394532	-638.5537109375001	-154.164306640625	403.9100341796876	-779.419128417969	-183.1195983886719	247.4085083007813	-690.2643432617189	-281.7664489746094	202.5109863281251	-654.9800415039064	-243.3849639892579	186.5823822021485	-675.7668457031251	-251.6786499023438	141.3636779785157	-713.6033935546876	-365.7620239257813	85.29062652587892	-707.4448242187501	-319.5265197753907	82.24161529541017	-778.8295898437502	-408.0059814453126	59.22877883911134	-752.5776367187501	-211.3778991699219	47.81250381469727	-727.2731933593751	-221.426986694336	56.44052886962892	-678.5032958984376	-268.6039428710938	36.52962875366212	-639.8398437500001	nan	nan	nan	
1104	5.515	115.1632995605469	1044.902099609375	-814.4416503906252	31.2148551940918	1001.455688476563	-975.2827758789065	-25.66556549072266	1061.898559570313	-847.233825683594	nan	nan	nan	-333.6591186523438	816.2122802734377	-912.4024047851565	-23.14828872680664	842.3718261718752	-881.1958618164065	-1.067862749099732	893.051452636719	-1024.861938476563	-88.46364593505861	862.9455566406252	-1175.974365234375	-104.4190139770508	815.3809204101565	-1180.56982421875	-134.8326873779297	841.0302734375002	-1225.001953125	-182.4299468994141	814.4713134765627	-1251.007446289063	-220.4394836425782	870.2236328125002	-1238.309326171875	-339.5539855957032	652.8607177734376	-1180.30322265625	-354.5221557617188	706.2535400390626	-1136.435424804688	-335.0451965332032	667.6188964843751	-1091.679443359375	-37.46660614013673	920.0870361328127	-752.4783325195314	-143.5687408447266	911.6284790039065	-629.5569458007814	-146.6583099365235	863.2416992187502	-618.1447143554689	-187.3875885009766	885.4141235351565	-580.8521728515626	-244.5973358154297	845.3577880859377	-548.9696044921876	-300.9078979492188	880.1878662109377	-588.0548095703126	-366.5770874023438	696.3760986328126	-676.4423828125001	-348.6871948242188	648.1967163085939	-634.4407958984376	-350.7279357910157	661.7014160156251	-721.6578369140626	nan	nan	nan	nan	nan	nan	-424.6348266601564	766.1371459960939	-916.5075683593752	-456.2800598144532	757.2062988281251	-943.2927856445315	-451.318084716797	758.9029541015626	-887.535827636719	-395.784881591797	583.3153076171876	-1140.174072265625	-318.5426330566407	554.3223876953126	-1141.989013671875	-292.9796447753907	585.8634033203126	-1116.94677734375	-297.1866760253907	502.061248779297	-1150.066040039063	-197.5219726562501	401.933563232422	-1158.798461914063	-162.3635406494141	367.0518798828126	-1007.734191894531	-175.0719604492188	236.6677398681641	-1079.029174804688	-220.7294921875001	212.3219604492188	-1149.565673828125	-200.5886230468751	197.8931884765626	-1111.88623046875	-243.2898559570313	131.4254302978516	-1079.317016601563	-333.3988647460938	84.96912384033205	-1133.767211914063	-309.4639282226563	84.33908843994142	-1050.27294921875	-390.2798767089845	61.64725875854494	-1094.40771484375	-200.2264404296876	50.74231719970705	-1075.475952148438	-189.9252471923828	53.25053024291994	-1123.015502929688	-233.2329864501954	35.98170852661134	-1171.892944335938	-424.8738708496095	500.2769470214845	-678.7576293945314	-360.3426513671876	500.0243530273439	-660.2189941406251	-342.6718750000001	527.5190429687501	-659.2885742187501	-308.0097045898438	436.7561645507814	-655.8037719726564	-205.5833740234376	392.0635681152345	-638.5427856445314	-154.0658111572266	404.0278320312501	-779.4583740234377	-183.1194610595703	247.4103088378907	-690.3031616210939	-281.7587890625001	202.5129089355469	-654.9773559570314	-243.3478088378907	186.5108032226563	-675.8613281250001	-251.6953277587891	141.3693542480469	-713.5510864257814	-365.7438049316407	85.29676055908205	-707.4613037109376	-319.4751892089844	82.2329788208008	-778.863220214844	-407.9156799316407	59.27104949951173	-752.5681152343751	-211.3746490478516	47.81264877319337	-727.2709350585939	-221.4302520751954	56.46066665649415	-678.4711914062501	-268.5864257812501	36.5711898803711	-639.8828735351564	nan	nan	nan	
